<svg id="Warstwa_1" data-name="Warstwa 1" xmlns="http://www.w3.org/2000/svg" viewBox="0 0 887.66 402.26"><defs><style>.cls-1{fill:#fff;}.cls-2{fill:none;stroke:#fff;stroke-width:3px;}</style></defs><g id="Warstwa_1-2" data-name="Warstwa 1"><path class="cls-1" d="M579.6,186.3c.9-6.9-.6-18.6-2-24.4-.8-3.3-4.3-11.3-4.3-11.3-2-4.9-4.2-10.3-13.3-22.4a119.44,119.44,0,0,0-8-9.2c-18.8-19.6-31.7-25.8-30.1-29.2,1.2-2.6,9.1,1.5,28.4-.6,11-1.2,16.9-3.1,22.7-6.8,8.4-5.4,4.3-14.3,12.6-21.3a29.08,29.08,0,0,1,14-6.3,43.14,43.14,0,0,0-19,3.2c-8.1,3.5-7.8,6.3-14.5,9.4-10.1,4.8-23.9,4.7-33.3-1.5-.8-.5-4.3-4.8-11.2-13.4-11.9-14.8-14.7-20-20.9-20.8-4-.5-7.2,1.2-9.2-1-2.4-2.6-.3-6.2-2-9.5-1.8-3.5-6.3-4.7-10.1-.4-3.1,3.5-1.8,6.6-4.9,10.1-6.4,7.3-25.6,1.5-32.1,6.3-5.3,3.9-2.6,6.9-9.8,14.5a36.63,36.63,0,0,1-18.4,9.8c-9.1,1.8-12-1.2-25.3-1.3-1.7,0-11-.9-18.5,2.5C358.5,68.1,343,93.1,343,93.1s11.5-12,26.6-14.7c5.4-1,21.8,3.6,28.6,5.3,16.3,4.2,22.9,2.8,31.3-.9,4.4-2,11-4.2,13.8-3.2,11.4,3.7,12.7,17.1,11.9,29.4-.8,12.6-4.6,25.6-14.1,45.1-7.9,16.2-13.1,21.5-19.9,25.8-7.9,5-22,13.8-30.1,16.5l-18.7,6.7a152.35,152.35,0,0,0,44.6,8.1c11.4.3,22.5.5,36.1-4.1,8.1-2.8,20.5-10.6,29.5-22.9,6.8-9.2,9.5-13.9,14.2-33.8,4.9-20.8,1.5-26.6,2.9-28.1a2.5,2.5,0,0,1,1-.4c2.2-.4,10.6,4.5,25.9,28.5,7.3,11.4,10.2,17.7,11,19.6a128.22,128.22,0,0,1,6.2,17.2,140.38,140.38,0,0,1,3.9,16.7c3.8,22.3.3,44.7.3,44.7a134.75,134.75,0,0,0,23.8-36.1c4.9-11.2,6.3-15.4,7.8-26.2Z" transform="translate(-37 -18.04)"/><path class="cls-1" d="M37,289l5.5-4.3,26.8,34.6c7.8,10,14.8,18.5,21,25.4A126.84,126.84,0,0,0,108,361.4a59.6,59.6,0,0,0,17.1,9.2,62.41,62.41,0,0,0,19.5,2.9c9.4,0,16.7-2.4,21.9-7s7.8-11,7.8-18.8a26.47,26.47,0,0,0-6.6-18.2c-4.4-4.9-11.9-9.3-22.6-13.1l-35.8-12.9a116,116,0,0,1-19.1-9.2,46,46,0,0,1-14.7-13.7c-3.7-5.6-5.6-12.3-5.6-20.3,0-9.9,2.9-18.2,8.7-25.1a53.38,53.38,0,0,1,22.6-15.6,80,80,0,0,1,29.4-5.4,36.5,36.5,0,0,0,12.2-1.8c3.3-1.2,5-4,5-8.5a23.36,23.36,0,0,0-.7-5.7l-4.3-17.4,6.2-1.9c3.2,8.3,6.7,16.3,10.5,24.1s8.3,15.9,13.4,24.4,11.2,17.8,18.4,27.9l21.5,30.6-5.7,4.3-23.4-29.9c-7.2-9.4-13.8-16.7-19.9-22a55.12,55.12,0,0,0-38.1-14.6c-8.3,0-14.7,2.2-19.1,6.7s-6.7,10.3-6.7,17.4,2.4,13.3,7.3,17.8,12.3,8.6,22.3,12.3l32.7,11.7c14,4.9,24.5,10.9,31.5,17.9s10.5,15.9,10.5,26.8c0,8.4-1.6,15.5-4.9,21.3a42.09,42.09,0,0,1-13.1,14.1,63.65,63.65,0,0,1-18.3,8.4,117.13,117.13,0,0,1-20.6,3.9c-7,.7-13.5,1.1-19.6,1.1q-11.25,0-16.2,3.6c-3.3,2.4-5,6.1-5,11.2a33.88,33.88,0,0,0,1,8.4l2.4,12-6.2,1.9c-2.2-8-5.2-17-9-27.2s-8.1-20.6-13.1-31.3A251.12,251.12,0,0,0,65,331.8L37,289Z" transform="translate(-37 -18.04)"/><path class="cls-1" d="M339.8,227.6c4.9,5.5,5.3,5.8,3.4,13.1-1.6,7.1-3.4,14.9-4.4,21.2,1.4,3.1-8.7,3.1-10.5,12-.2,1-1.2,3.5-1.4,4.1-11.7,28.2-7.9,5.7,11.3,30.4.4.5,3.2,2.8,3.5,3.6.9,2.2-.2,8-.6,10.2a72.41,72.41,0,0,1-4.7,7.7c-.3.4-9.3-1.5-13.8-3.5-28.9-13.2-59.8-4.4-88.6,2.5-19.8,7-53.8.3-41.9-26.8,8.6-21.1,28.3-7.6,11.9-26.6-16.8-27-21.7-61.5-1.9-88.6,7.9-12,20.6-21.6,33.7-27.3,13.4-6.2,30.7-4,41.9.6,9.8,4,22.8,12.3,28.9,17.7a78.36,78.36,0,0,1,22.6,36.4c3.5,3.1,7.6,9.4,10.6,13.3ZM221.2,327.7c37.6-5.3,71-23.1,107.9-2.3-39.6-39.6-47.8.8-26.9-48.7,4.5-14,5.3-8.1,17.5-7.3,3.4-6.5,3.6-18.4,5.4-24.9,2.1-7.6,5.2-18.9,3.9-26-.1-.8-10.8.7-13.4.2-4.2-.7-3.2-2.5-4-7.4a49.59,49.59,0,0,0-4.3-15.1c-8.2-17-26.9-35-46.1-36.8-5.3-.1-15.3-1-20.9,1.4a103.2,103.2,0,0,0-15.1,7.8c-52.4,34.7-37.1,98.8,6.8,133.3-.2,0,.2,1.1-1,.6a113.27,113.27,0,0,1-10.8-6.1c-3.9-1.9-8.2-2.8-15-1.5a18.54,18.54,0,0,0-12.1,16.2c-.7,9.1,13.4,18.7,28.1,16.6Zm90.4-84.8c3.4-.6,5.1-19.3,1.3-20.2,3.5.9,8.3-.2,8.4.9.3,3.2-.3,28.8-5.1,39.4-.1,0-.1,0-.1.1-2.7.2-6.6.2-8.5.2.3-2.8,6.8-16.7,3.6-16.3-2.6.3-13.1.2-26.1,5-40.8,15-20.9,1.4-27.8,36.4-5.8,29.6-40.8-35.8-26.2-46.6,4.7-4.5,9.4-5.4,13-2.3,5.4,4.6,6.8,9.2,8.1,12.3l1.5,3.8c3.4-.7,7-2.2,10.3-3.1,12.7-4.6,34.4-8,47.6-9.6Zm-56.1,17.8a1.41,1.41,0,0,0-.1-.9Z" transform="translate(-37 -18.04)"/><path class="cls-1" d="M846.3,255.2c10.6,8.8,31.1,19.1,41.9,23.3C904.9,285,914,296.7,920,310c-3.1,2.2-7.6,4.5-8.9,8.7-8.1,19,17.6,38.4,13,55.9-2.7,10.1-6.1,21.2-11.7,29.2-11.6,7.1-28.8,10.5-42.7,7.5a37,37,0,0,1-16.4-8.5c-3.6-3.3-13.2-14.1-20.1-22.9-6.2,11.1-14.8,18.4-26.9,25.3-13.8,7.9-55.9,24.3-51.7-4.6.7-4.7,3.3-5-.2-8.6-3-3.1-6.4-8.1-10.8-3.8-10,9.7-18.9-11.1-23.9-19.4-3.2-10-21.7-29.9-8.4-34,3.6-2.1,7-2.7,4.4-7.6-6,1.1-12.1-4.4-15-9.1-4.5-2.5,1-24.3-.2-33.6,2.7-11.3-6.2-47.8,6.5-49-1.7.4,4-1.5,4.3-1.2,47.7-13.2,60.5-61.6,112.5-24.9,2,.8,3.1,3.9,2.6,3.6,5.7,9.4,13.4,20.4,19.3,29.9,3.3,2.8,1.9,7.6.6,12.3ZM704.8,239.5c-.4,8.1-.9,17.4-.7,29.2a298.38,298.38,0,0,1-.5,31.8c-.4,6.8-.5,8.1-1.9,14.1-.5,2.1,2.3,2,4.1,1.4,10.2-3.8,2.2-11.9,10.1-12.5,1.2,1.8.9,5.9,1.2,10.6-.5,5.4,3.5,14,3.8,19.3.1,1.9-4.5,2.3-6.3,3.8-7.3,5.8,14.9,40.1,19.6,46.3.4.6,1.5,2.1,2,2.7,1.5-1.7,9.1-6.4,11.7-5.9,2.9,3.7,14.7,13.1,14.7,17.1-7.3,1.3-6.7,15.4,1.5,16.1,15.1,1.2,35.3-6.4,47.6-15.9,26.7-22.1-4.2-49.6-7.8-74.4,1.6-10.9,5.9,10,13.3,24.1,8.7,16.5,33.9,53.7,49.9,60.2,11.4,4.7,18.3,4.2,31.6.4,4.4-1.2,13.1-3.1,10.6-8.2-5.1-25-43.8-94.1-12.8-110.5,5.7-2.3.7-3.8-5.6-6.2-14.9-5.9-30.1-12.3-42.7-22.5-13.5-10.9-17.5-7.6-16.4,7.3,1.4,18.4-2,31.9-.2,43.9,2.9,19.3,7,37.9,21.4,56.7,3,4-3.3,5.5-9-3.2-14.5-22.5-28-54.9-27.9-83.3-.8-6.2-14.2,5.5-17.5,10.1-11.8,10.7-4.8,33.9-2.4,44.2,12,43.3-3.5,15-14.6,1-12,5.3-31.7,15.2-43.3,20.7-8.1,3.8.1,9,2.6,13.6,2.2,2.1-3,8.4-5.3,5.7-7-9.7-14.6-20.6-19.2-31.7-.3-3.2,5.4-6.2,7-3,1.2,2.4,4.2,14.6,7.5,13.9,7.6-1.8,10.4-3.4,15.9-6.4,64.1-35.1,6.4.7,63.7-87.1,8.1-12.4,15-27.8,9.2-39.1-9.5-18.7-23.1-26.1-32.4-24.9-19.8,2.5-30.5,16.4-41.7,23a134.58,134.58,0,0,1-40.8,17.6Z" transform="translate(-37 -18.04)"/><path class="cls-1" d="M574.4,270.5H563.7a128.24,128.24,0,0,0-19.9,1.4,43.73,43.73,0,0,0-15.3,5.5,57.82,57.82,0,0,0-13.8,12.5,179.62,179.62,0,0,0-15.2,22.3L487,333a236.17,236.17,0,0,1-22.9,32.3,102.17,102.17,0,0,1-25.9,22.2,59.33,59.33,0,0,1-30.6,8.1,61.77,61.77,0,0,1-32.4-8.6,60.07,60.07,0,0,1-22.4-23.9c-5.4-10.2-8.2-21.9-8.2-35.4a63.44,63.44,0,0,1,5.8-27.6,68.46,68.46,0,0,1,15.8-21.5,72.37,72.37,0,0,1,22.9-14,75.51,75.51,0,0,1,27.3-4.9c3.8,0,6.4-.5,8.1-1.5s2.5-2.8,2.5-5.4a10.87,10.87,0,0,0-.1-1.8,11.27,11.27,0,0,0-.3-1.8L424,236l4.7-1.4c2.2,6.3,4.5,12.3,7.1,18.1a183.26,183.26,0,0,0,9.2,18.2c3.6,6.4,8.2,13.6,13.6,21.7l11.8,17.6-4,3.5-12.7-15.4a149,149,0,0,0-16.3-17.7,48.12,48.12,0,0,0-14.2-9.2,42,42,0,0,0-15.3-2.7,44.16,44.16,0,0,0-15.1,2.7,40,40,0,0,0-13.7,8.4,42.42,42.42,0,0,0-10,14.8c-2.5,6-3.8,13.4-3.8,21.9,0,11.7,2.2,22.1,6.6,31.3a52.87,52.87,0,0,0,18.3,21.5c7.8,5.2,16.8,7.8,27.1,7.8a54.77,54.77,0,0,0,23.4-5.3c7.5-3.5,15-9.4,22.7-17.6s15.5-19.4,23.8-33.5l5.8-10c6.3-10.9,11.3-20.2,15.1-27.9s6.8-14.4,9-20,3.9-10.7,5.3-15.1,2.7-8.8,4-13.1l4.7,1.4-2.5,13.4-.3,2.1a12.75,12.75,0,0,0-.1,1.9c0,3.8,1.4,6.3,4.3,7.6s6.9,2.1,12.1,2.4q3.3.15,7.5.3c2.8.1,5.7.1,8.4.2s5,.1,6.7.1c6,0,12.3-.1,18.9-.4s13-.5,19.4-.9V266L519.9,384.4h15.4a98,98,0,0,0,22.5-2.3,51.09,51.09,0,0,0,17-7.4,80.63,80.63,0,0,0,15-13.6,217.31,217.31,0,0,0,16.1-21l18.3-25.9,4.2,2.5-28.3,44.8a226,226,0,0,0-17.4,32.3c-4.3,10.2-7.9,19-10.7,26.5l-4.7-1.5,4.2-12.9a22.55,22.55,0,0,0,1.3-6.5c0-2.7-1-4.4-3.1-5.3a36.45,36.45,0,0,0-9.4-2c-4.2-.5-9.1-.8-14.6-1s-11.3-.3-17.3-.3-12.6.1-19.6.3-13.7.5-20.1,1v-3.3l85.7-118.3Z" transform="translate(-37 -18.04)"/><path class="cls-2" d="M568.5,270.5h-11a134.2,134.2,0,0,0-20.4,1.4,45.1,45.1,0,0,0-15.7,5.5,58.66,58.66,0,0,0-14.1,12.5,86,86,0,0,0-14.1,23.3L480.4,334c-9,11.1-16.8,21.9-25,31.3a103.11,103.11,0,0,1-26.6,22.2,62.25,62.25,0,0,1-31.4,8.1c-12.4,0-23.5-2.9-33.2-8.6a61.51,61.51,0,0,1-23-23.9c-5.6-10.2-8.4-21.9-8.4-35.4a62.12,62.12,0,0,1,6-27.6A69.67,69.67,0,0,1,355,278.6a75.23,75.23,0,0,1,23.5-14c8.9-3.3,24.8-8,34.6-8,3.8,0,9.2.7,10.7-1.3.8-1,1-3.1.8-4.8L422,237.3l4.8-1.4c2.2,6.3,4.6,12.3,7.3,18.1s-2,10.6,1.8,16.9,14.2,15,19.8,23.1l12.1,17.6-4.1,3.5-13-15.4A156.54,156.54,0,0,0,434,282a55.88,55.88,0,0,0-20.5-10.6c-4.9-1.4-10-2.7-15.7-2.7a46.42,46.42,0,0,0-15.5,2.7,40.48,40.48,0,0,0-24.2,23.2c-2.6,6-3.9,13.4-3.9,21.9a70.23,70.23,0,0,0,6.8,31.3,52.59,52.59,0,0,0,18.8,21.5c8,5.2,17.3,7.8,27.8,7.8a57.43,57.43,0,0,0,24-5.3c7.7-3.5,15.4-9.4,23.2-17.6s15.9-19.4,24.4-33.5l6-10c6.5-10.9,11.6-20.2,15.5-27.9s7-14.4,9.2-20,4-10.7,5.4-15.1,3.4-10.2,4.7-14.5l9.5,2.8-2.7,14-.3,2.1a12.75,12.75,0,0,0-.1,1.9c0,3.7-3.8,5.7-.8,7.1s7.6,3.7,12.9,4c2.2.1,4.7,1,7.6,1.1s5.5.4,8.4.5,6.4.1,8.1.1c6.2,0,12-.2,18.7-.5s12.4-.5,19-.8l.1.6L512.6,384.5h15.8a103.59,103.59,0,0,0,23.1-2.3,53.74,53.74,0,0,0,17.5-7.4,85.89,85.89,0,0,0,15.4-13.6,230.64,230.64,0,0,0,16.6-21l20.4-27.3,4.2,2.9L595,361.5a232.32,232.32,0,0,0-17.9,32.3c-4.5,10.2-5.4,16.4-8.2,23.9l-6.8-2.1,3.4-9.7a19.61,19.61,0,0,0,1.3-6.5c0-2.7-1.1-4.4-3.2-5.3s-5.3-1.5-9.7-2-9.3-.8-15-1-11.6-.3-17.8-.3-12.9.1-20.1.3-14.1.5-20.6,1v-3.3l88.1-118.3Z" transform="translate(-37 -18.04)"/><path class="cls-1" d="M694.8,335.1h15.6v15.6H632.3V335.1H616.7V225.7H601V210h15.6V194.4h15.6V178.8h15.6v15.6h15.6V210H647.8v46.9h46.9v15.6H647.8v46.9h15.6V335h31.4Zm15.6-109.4H694.8V210H679.2V194.4H663.6V178.8h46.9v15.6H726V178.8h15.6V210H726v15.6l-15.6.1Z" transform="translate(-37 -18.04)"/></g></svg>