<svg id="Warstwa_1" data-name="Warstwa 1" xmlns="http://www.w3.org/2000/svg" viewBox="0 0 256.82 230.35"><path d="M274.37,225.1c.93-6.87-.59-18.65-2-24.43a114.51,114.51,0,0,0-4.27-11.27c-2-4.94-4.15-10.34-13.28-22.36a116.5,116.5,0,0,0-8-9.21C228,138.26,215.12,132,216.73,128.67c1.23-2.56,9.11,1.52,28.4-.62,11-1.22,16.86-3.14,22.66-6.85,8.42-5.39,4.28-14.35,12.58-21.26a29,29,0,0,1,13.95-6.27,43.46,43.46,0,0,0-19,3.2c-8.14,3.49-7.8,6.26-14.49,9.45-10.09,4.81-23.93,4.73-33.35-1.49-.8-.53-4.29-4.83-11.24-13.42-11.94-14.75-14.74-20-20.92-20.76-4.05-.49-7.21,1.17-9.22-1-2.41-2.6-.34-6.19-2-9.47-1.82-3.53-6.27-4.73-10.12-.39-3.14,3.54-1.83,6.6-4.94,10.11-6.43,7.27-25.6,1.53-32.08,6.32-5.27,3.89-2.57,6.93-9.78,14.45a36.17,36.17,0,0,1-18.41,9.76c-9.12,1.81-12-1.16-25.34-1.35-1.68,0-11-.89-18.46,2.49C53,107,37.5,132,37.5,132S49,120,64.12,117.29c5.43-1,21.77,3.55,28.56,5.29,16.3,4.18,22.86,2.84,31.34-.92,4.43-2,11-4.17,13.84-3.24,11.44,3.74,12.68,17.1,11.89,29.41-.81,12.64-4.63,25.59-14.14,45.09-7.91,16.24-13.09,21.47-19.89,25.77-7.88,5-22,13.82-30.1,16.5C83.07,236,67,241.9,67,241.9A152.62,152.62,0,0,0,111.52,250c11.4.32,22.54.53,36.1-4.09,8.09-2.76,20.45-10.6,29.55-22.94,6.79-9.2,9.49-13.9,14.23-33.83,4.93-20.75,1.5-26.57,2.92-28.12a2.36,2.36,0,0,1,1-.43c2.21-.45,10.56,4.52,25.88,28.52,7.26,11.37,10.15,17.73,11,19.61a131.72,131.72,0,0,1,6.24,17.23,146.17,146.17,0,0,1,3.93,16.74c3.76,22.33.3,44.69.3,44.69a131.35,131.35,0,0,0,23.8-36.15c5-11.19,6.45-15.37,7.91-26.08Z" transform="translate(-37.5 -57)"/></svg>